<svg xmlns="http://www.w3.org/2000/svg" viewBox="0 0 944.92 397.34"><defs><style>.cls-1{fill:#ba1313;}</style></defs><title>Logo-GR-XL-Rouge_1</title><g id="Calque_2" data-name="Calque 2"><g id="Calque_1-2" data-name="Calque 1"><path class="cls-1" d="M410.58,63.2c0-22,14.73-36.67,36.78-36.67,12.05,0,24.21,8,30.38,20l-12.87,3.2c-3.71-6.49-10.72-10.82-17.51-10.82-13.81,0-23,9.69-23,24.31s9.16,24.52,23,24.52c9.47,0,17.61-6.7,20.19-16.79H444.27V58.57h37.6V63.2c0,22.15-13.81,36.88-34.51,36.88C425.31,100.08,410.58,85.35,410.58,63.2Z"/><path class="cls-1" d="M487.24,72.88c0-16.27,11.12-27.19,27.92-27.19s27.91,10.92,27.91,27.19v2.37l-1,1H499.8c1.14,8.13,7.32,13.49,15.36,13.49a15.62,15.62,0,0,0,14.11-8.65h12.57c-3.41,11.33-14.12,19-26.68,19C498.36,100.08,487.24,89.16,487.24,72.88ZM529.68,66c-2.37-6.38-7.62-10-14.52-10S503,59.6,500.63,66Z"/><path class="cls-1" d="M548.44,72.88c0-16.27,11.13-27.19,27.92-27.19s27.92,10.92,27.92,27.19-11.13,27.2-27.92,27.2S548.44,89.16,548.44,72.88Zm43.48,0c0-9.78-6.19-16.27-15.56-16.27s-15.55,6.49-15.55,16.27S567,89.16,576.36,89.16,591.92,82.67,591.92,72.88Z"/><path class="cls-1" d="M610.68,47.13H623v6.08a15.53,15.53,0,0,1,12.47-7.11,15.07,15.07,0,0,1,5.45,1v9.48h-4.22c-8.24,0-13.7,4.64-13.7,11.54V98.64H610.68Z"/><path class="cls-1" d="M642,98.64h12.36c1.55,5.77,7.11,9.68,14,9.68,9.38,0,14.63-5.56,14.63-15.35v-.82a23.16,23.16,0,0,1-15.76,6.49c-15.56,0-25.86-10.61-25.86-26.47s10.3-26.48,25.86-26.48A23.2,23.2,0,0,1,683,52.18v-5h12.36V93c0,16.8-9.68,26.27-27,26.27C654.26,119.24,643.75,111,642,98.64Zm41-26.47c0-9.38-5.77-15.56-14.52-15.56s-14.74,6.18-14.74,15.56,5.87,15.55,14.74,15.55S683,81.54,683,72.17Z"/><path class="cls-1" d="M701.76,72.88c0-16.27,11.13-27.19,27.92-27.19S757.6,56.61,757.6,72.88v2.37l-1,1H714.33c1.13,8.13,7.32,13.49,15.35,13.49a15.61,15.61,0,0,0,14.11-8.65h12.57c-3.4,11.33-14.11,19-26.68,19C712.89,100.08,701.76,89.16,701.76,72.88ZM744.21,66c-2.38-6.38-7.63-10-14.53-10s-12.16,3.61-14.52,10Z"/><path class="cls-1" d="M759.88,81.13h11.64c.41,5.15,5.35,8.65,12.25,8.65s11.54-2.68,11.54-6.7c0-2.47-3.09-4.22-12.67-6.07C767.71,73.61,763,70.21,763,61.66c0-9.58,8.34-16,20.8-16,9.89,0,18.54,5.36,21.54,13.39L794,61.86c-1.54-3.5-5.66-5.87-10.2-5.87-5,0-8.44,2.06-8.44,5,0,2.16,2.36,3.5,9.68,5.15,17.2,3.61,22.66,7.52,22.66,16.89,0,10.2-9.58,17-23.9,17C769.87,100.08,760.29,92.46,759.88,81.13Z"/><path class="cls-1" d="M413.88,151.62h32.86c13.8,0,23,8.14,23,20.29,0,9.38-5.77,17.1-14.32,19.27l19.26,31.11H459.41L440.76,192.2H427.68v30.09h-13.8Zm32.86,28.22c6.28,0,9.48-4,9.48-7.93S453,164,446.74,164H427.68v15.86Z"/><path class="cls-1" d="M475.91,196.53c0-16.27,11.12-27.19,27.92-27.19s27.91,10.92,27.91,27.19v2.37l-1,1H488.47c1.14,8.14,7.32,13.5,15.36,13.5a15.63,15.63,0,0,0,14.11-8.66H530.5c-3.4,11.33-14.11,19-26.67,19C487,223.73,475.91,212.81,475.91,196.53Zm42.44-6.9c-2.37-6.39-7.62-10-14.52-10s-12.16,3.6-14.53,10ZM497.54,163l7.52-17.61H520.2L509.59,163Z"/><path class="cls-1" d="M539.17,170.78h12.36v3.81a21.6,21.6,0,0,1,14-5.25c14.12,0,23.49,8.34,23.49,20.91v32H576.67v-30.6c0-6.9-5-11.43-12.57-11.43s-12.57,4.53-12.57,11.43v30.6H539.17Z"/><path class="cls-1" d="M595.43,196.53c0-16.27,11.12-27.19,27.91-27.19s27.92,10.92,27.92,27.19-11.12,27.2-27.92,27.2S595.43,212.81,595.43,196.53Zm43.47,0c0-9.78-6.18-16.27-15.56-16.27s-15.55,6.49-15.55,16.27,6.18,16.28,15.55,16.28S638.9,206.32,638.9,196.53Z"/><path class="cls-1" d="M652.1,170.78h13.29L679,209.3l13.7-38.52H706l-20.7,51.51H672.7Z"/><path class="cls-1" d="M707.85,196.53c0-16.27,10.71-27.19,26.78-27.19a24,24,0,0,1,16.69,7v-5.56h12.36v51.51H751.32v-5.57a24,24,0,0,1-16.69,7C718.56,223.73,707.85,212.81,707.85,196.53Zm43.47,0c0-9.78-6.19-16.27-15.46-16.27s-15.65,6.49-15.65,16.27,6.28,16.28,15.65,16.28S751.32,206.32,751.32,196.53Z"/><path class="cls-1" d="M777.49,209.1v-28h-8.24v-10.3h8.24V151.62h12.36v19.16h13v10.3h-13v28a4.22,4.22,0,0,0,4.53,4.33h9v8.86a24.67,24.67,0,0,1-8.76,1.44C784.29,223.73,777.49,217.86,777.49,209.1Z"/><path class="cls-1" d="M813,151.62H825.4V163H813Zm0,19.16H825.4v51.51H813Z"/><path class="cls-1" d="M832.83,196.53c0-16.27,11.12-27.19,27.91-27.19s27.92,10.92,27.92,27.19-11.13,27.2-27.92,27.2S832.83,212.81,832.83,196.53Zm43.47,0c0-9.78-6.19-16.27-15.56-16.27s-15.55,6.49-15.55,16.27,6.18,16.28,15.55,16.28S876.3,206.32,876.3,196.53Z"/><path class="cls-1" d="M895.06,170.78h12.36v3.81a21.58,21.58,0,0,1,14-5.25c14.11,0,23.49,8.34,23.49,20.91v32H932.56v-30.6c0-6.9-5.06-11.43-12.57-11.43s-12.57,4.53-12.57,11.43v30.6H895.06Z"/><polygon class="cls-1" points="0 110.45 191.39 0 382.78 110.48 382.78 226.77 358.51 226.77 358.51 124.6 191.39 28.06 24.21 124.51 24.21 265.81 179.27 355.34 179.27 216.07 123.61 216.07 123.61 191.61 225.23 191.61 210.1 174.99 123.52 174.99 123.52 150.81 220.8 150.81 280.43 215.88 203.64 215.88 203.64 397.34 0 279.94 0 110.45"/></g></g></svg>